<?xml version="1.0" standalone="no"?><!DOCTYPE svg PUBLIC "-//W3C//DTD SVG 1.1//EN" "http://www.w3.org/Graphics/SVG/1.1/DTD/svg11.dtd"><svg t="1665479981739" class="icon" viewBox="0 0 1024 1024" version="1.1" xmlns="http://www.w3.org/2000/svg" p-id="11263" width="48" height="48" xmlns:xlink="http://www.w3.org/1999/xlink"><path d="M173 255h60v641h-60zM342 383h60v513h-60zM510 548h60v348h-60zM679 640h60v256h-60zM848 677h60v219h-60zM732.354 348.332c-9.912 0-19.379 2.962-28.402 9.251l8.1-40.583H772v-17h-74.715l-14.561 77.076 17.33 2.188c2.732-4.307 6.493-7.843 11.279-10.544 4.783-2.699 10.15-4.067 16.098-4.067 9.57 0 17.313 3.034 23.227 9.117 5.91 6.085 8.869 14.387 8.869 24.913 0 11.074-3.076 19.959-9.229 26.658-6.152 6.7-13.674 10.048-22.559 10.048-7.383 0-13.689-2.375-18.919-7.127-5.229-4.75-8.562-11.843-9.997-21.277l-19.381 1.64c1.23 12.647 6.169 22.799 14.817 30.454 8.647 7.657 19.806 11.484 33.479 11.484 16.678 0 29.838-6.083 39.477-18.252 7.93-9.911 11.895-21.669 11.895-35.273 0-14.287-4.512-25.976-13.535-35.068-9.022-9.091-20.096-13.638-33.221-13.638zM874 371.403V389h44v28.033c-4 3.76-10.33 7.298-18.533 10.613-8.203 3.316-16.548 4.973-25.161 4.973-9.913 0-19.245-2.187-28.063-6.563-8.818-4.374-15.518-11.074-20.133-20.098-4.613-9.023-6.913-20.234-6.913-33.633 0-10.869 1.917-20.952 5.746-30.249 2.256-5.399 5.419-10.356 9.487-14.868 4.065-4.512 9.416-8.152 16.048-10.92 6.63-2.769 14.491-4.153 23.585-4.153 7.588 0 14.491 1.317 20.713 3.948 6.22 2.632 11.005 6.136 14.355 10.51 3.349 4.375 6.152 10.392 8.408 18.047l17.944-4.922c-2.599-10.116-6.393-18.319-11.382-24.609-4.991-6.289-11.879-11.193-20.662-14.714-8.784-3.52-18.61-5.281-29.479-5.281-14.971 0-28.198 3.076-39.683 9.229s-20.287 15.57-26.404 28.25c-6.118 12.681-9.177 26.336-9.177 40.964 0 14.766 3.076 28.131 9.229 40.093 6.152 11.963 15.261 21.107 27.327 27.429 12.063 6.324 25.48 9.485 40.246 9.485 10.937 0 21.73-1.966 32.123-5.896 10.389-3.93 20.379-9.792 30.379-17.585v-55.781l-64 0.101z" p-id="11264" fill="#2196f3"></path></svg>